<svg version="1.1"
	 xmlns="http://www.w3.org/2000/svg" xmlns:xlink="http://www.w3.org/1999/xlink" xmlns:a="http://ns.adobe.com/AdobeSVGViewerExtensions/3.0/"
	 x="0px" y="0px" width="120px" height="60px" viewBox="0 0 120 60" enable-background="new 0 0 120 60" xml:space="preserve">
<defs>
</defs>
<g>
	<path fill="none" stroke="#ECECEC" stroke-width="10" stroke-miterlimit="10" d="M115,60c0-30.4-24.6-55-55-55S5,29.6,5,60"/>
	<path fill="none" stroke="#ECECEC" stroke-width="10" stroke-miterlimit="10" d="M115,60"/>
	<path fill="none" stroke="#ECECEC" stroke-width="10" stroke-miterlimit="10" d="M5,60"/>
	<g id="Thing_2_">
		<g id="TopSpokes_2_">
			<g>
				<path fill="#ECECEC" d="M61,46.1c0,0.2-0.1,0.3-0.3,0.3h-1.4c-0.2,0-0.3-0.1-0.3-0.3v-9.4c0-0.2,0.1-0.3,0.3-0.3h1.4
					c0.2,0,0.3,0.1,0.3,0.3V46.1z"/>
			</g>
			<g>
				<path fill="#ECECEC" d="M53,46.1c0,0.2-0.1,0.3-0.3,0.3h-1.4c-0.2,0-0.3-0.1-0.3-0.3v-9.4c0-0.2,0.1-0.3,0.3-0.3h1.4
					c0.2,0,0.3,0.1,0.3,0.3V46.1z"/>
			</g>
			<g>
				<path fill="#ECECEC" d="M69.1,46c0,0.2-0.2,0.3-0.3,0.3h-1.4c-0.2,0-0.3-0.2-0.3-0.3v-9.4c0-0.2,0.2-0.3,0.3-0.3h1.4
					c0.2,0,0.3,0.2,0.3,0.3V46z"/>
			</g>
		</g>
		<g id="LeftSpokes_2_">
			<g>
				<path fill="#ECECEC" d="M46.9,59.5c0-0.2-0.1-0.3-0.3-0.3h-9.4c-0.2,0-0.3,0.1-0.3,0.3V60h10.1V59.5z"/>
			</g>
			<g>
				<path fill="#ECECEC" d="M46.7,50.9c0.2,0,0.3,0.2,0.3,0.3v1.4c0,0.2-0.2,0.3-0.3,0.3h-9.4c-0.2,0-0.3-0.2-0.3-0.3v-1.4
					c0-0.2,0.2-0.3,0.3-0.3H46.7z"/>
			</g>
		</g>
		<path fill="#ECECEC" d="M59.9,54.5c3.1,0,5.7,2.5,5.8,5.5h8.7V45.3h-29V60h8.7C54.3,56.9,56.8,54.5,59.9,54.5z"/>
		<g id="RightSpokes_2_">
			<g>
				<path fill="#ECECEC" d="M83,59.5c0-0.2-0.1-0.3-0.3-0.3h-9.4c-0.2,0-0.3,0.1-0.3,0.3V60H83V59.5z"/>
			</g>
			<g>
				<path fill="#ECECEC" d="M83,53c0,0.2-0.1,0.3-0.3,0.3h-9.4c-0.2,0-0.3-0.1-0.3-0.3v-1.4c0-0.2,0.1-0.3,0.3-0.3h9.4
					c0.2,0,0.3,0.1,0.3,0.3V53L83,53z"/>
			</g>
		</g>
	</g>
</g>
</svg>
