<svg version="1.1"
	 xmlns="http://www.w3.org/2000/svg" xmlns:xlink="http://www.w3.org/1999/xlink" xmlns:a="http://ns.adobe.com/AdobeSVGViewerExtensions/3.0/"
	 x="0px" y="0px" width="52.8px" height="52.8px" viewBox="0 0 52.8 52.8" enable-background="new 0 0 52.8 52.8"
	 xml:space="preserve">
<defs>
</defs>
<g>
	<g>
		<polygon fill="#ECECEC" points="32.6,17.1 52.8,34 52.8,37.7 32.6,27.6 		"/>
		<path fill="#ECECEC" d="M30.2,7.5v7.5l0,0v11.3l0,0v15.1l7.5,7.5v3.8L26.4,49l-11.3,3.8V49l7.5-7.5V26.4L0,37.7L0,34l22.6-18.9
			V7.5c0,0,0-7.5,3.8-7.5C30.2,0,30.2,7.5,30.2,7.5z"/>
	</g>
	<polygon fill="#ECECEC" points="45.1,29 45.1,24.9 44.5,24.3 44,24.8 44,28.7 	"/>
	<polygon fill="#ECECEC" points="39,24.6 39,20.6 38.5,20 38,20.5 38,24.4 	"/>
	<g>
		<polygon fill="#ECECEC" points="7.7,29 7.7,24.9 8.3,24.3 8.8,24.8 8.8,28.7 		"/>
		<polygon fill="#ECECEC" points="13.8,24.6 13.8,20.6 14.3,20 14.8,20.5 14.8,24.4 		"/>
	</g>
</g>
</svg>
