<svg version="1.1"
	 xmlns="http://www.w3.org/2000/svg" xmlns:xlink="http://www.w3.org/1999/xlink" xmlns:a="http://ns.adobe.com/AdobeSVGViewerExtensions/3.0/"
	 x="0px" y="0px" width="1440.9px" height="145.8px" viewBox="0 0 1440.9 145.8" enable-background="new 0 0 1440.9 145.8"
	 xml:space="preserve">
<defs>
</defs>
<g>
	<rect x="23.8" y="9.3" fill="#1D3649" width="10" height="10"/>
	<rect x="82.3" y="61.3" fill="#1D3649" width="10" height="10"/>
	<rect x="64" y="75" fill="#1D3649" width="10" height="10"/>
	<rect x="69" y="9.3" fill="#1D3649" width="10" height="10"/>
	<rect x="130.8" y="30" fill="#1D3649" width="10" height="10"/>
	<rect x="39.8" y="51.3" fill="#1D3649" width="14.9" height="14.9"/>
	<rect x="359.8" y="14.3" fill="#1D3649" width="14.9" height="14.9"/>
	<rect x="477.4" y="37.6" fill="#1D3649" width="14.9" height="14.9"/>
	<rect x="173.6" y="93.5" fill="#1D3649" width="14.9" height="14.9"/>
	<rect x="558.9" y="1.9" fill="#1D3649" width="14.9" height="14.9"/>
	<rect x="0" y="67.5" fill="#1D3649" width="10" height="10"/>
	<rect x="164.8" y="62.5" fill="#1D3649" width="10" height="10"/>
	<rect x="69" y="33.8" fill="#1D3649" width="10" height="10"/>
	<rect x="141.5" y="9.3" fill="#1D3649" width="10" height="10"/>
	<rect x="171" y="19.3" fill="#1D3649" width="10" height="10"/>
	<rect x="103.8" y="16.8" fill="#1D3649" width="10" height="10"/>
	<rect x="217.5" y="6.8" fill="#1D3649" width="10" height="10"/>
	<rect x="226" y="58.8" fill="#1D3649" width="10" height="10"/>
	<rect x="246.5" y="85" fill="#1D3649" width="10" height="10"/>
	<rect x="415.5" y="6.8" fill="#1D3649" width="10" height="10"/>
	<rect x="329.1" y="70" fill="#1D3649" width="10" height="10"/>
	<rect x="296.3" y="83.8" fill="#1D3649" width="10" height="10"/>
	<rect x="492.3" y="6.8" fill="#1D3649" width="10" height="10"/>
	<rect x="535.6" y="6.8" fill="#1D3649" width="10" height="10"/>
	<rect x="366" y="53.6" fill="#1D3649" width="10" height="10"/>
	<rect x="381.8" y="35" fill="#1D3649" width="10" height="10"/>
	<rect x="314.1" y="30" fill="#1D3649" width="10" height="10"/>
	<rect x="319.1" y="6.8" fill="#1D3649" width="10" height="10"/>
	<rect x="246.5" y="30" fill="#1D3649" width="10" height="10"/>
	<rect x="129.8" y="82.5" fill="#1D3649" width="10" height="10"/>
	<rect x="436.5" y="26.8" fill="#1D3649" width="10" height="10"/>
	<rect x="484" y="72.5" fill="#1D3649" width="10" height="10"/>
	<rect x="451.3" y="83.8" fill="#1D3649" width="10" height="10"/>
	<rect x="568.5" y="60" fill="#1D3649" width="10" height="10"/>
	<rect x="563.5" y="31.3" fill="#1D3649" width="10" height="10"/>
	<rect x="408.8" y="62.5" fill="#1D3649" width="10" height="10"/>
	<rect x="522" y="28.8" fill="#1D3649" width="10" height="10"/>
	<rect x="611.8" y="20" fill="#1D3649" width="10" height="10"/>
	<rect x="264.3" y="14.3" fill="#1D3649" width="10" height="10"/>
	<rect x="207.5" y="35" fill="#1D3649" width="10" height="10"/>
	<rect x="7.5" y="37.5" fill="#1D3649" width="10" height="10"/>
	<rect x="326.6" y="56.1" fill="#1D3649" width="5" height="5"/>
	<rect x="406.3" y="36.3" fill="#1D3649" width="5" height="5"/>
	<rect x="264.3" y="47.5" fill="#1D3649" width="5" height="5"/>
	<rect x="420.5" y="53.6" fill="#1D3649" width="5" height="5"/>
	<rect x="408.8" y="95" fill="#1D3649" width="5" height="5"/>
	<rect x="508" y="50" fill="#1D3649" width="5" height="5"/>
	<rect x="296.3" y="24.3" fill="#1D3649" width="5" height="5"/>
	<rect x="162.3" y="47.5" fill="#1D3649" width="5" height="5"/>
	<rect x="217.5" y="87.5" fill="#1D3649" width="5" height="5"/>
	<rect x="190.5" y="60" fill="#1D3649" width="5" height="5"/>
	<rect x="159.8" y="102" fill="#1D3649" width="5" height="5"/>
	<rect x="122.3" y="119.1" fill="#1D3649" width="5" height="5"/>
	<rect x="159.8" y="133.1" fill="#1D3649" width="5" height="5"/>
	<rect x="363.5" y="85" fill="#1D3649" width="5" height="5"/>
	<rect x="288.4" y="108.9" fill="#1D3649" width="5" height="5"/>
	<rect x="274.3" y="71.2" fill="#1D3649" width="5" height="5"/>
	<rect x="254" y="111.4" fill="#1D3649" width="5" height="5"/>
	<rect x="296.3" y="54.6" fill="#1D3649" width="5" height="5"/>
	<rect x="347.3" y="33.8" fill="#1D3649" width="5" height="5"/>
	<rect x="444" y="65" fill="#1D3649" width="5" height="5"/>
	<rect x="589.5" y="24.3" fill="#1D3649" width="5" height="5"/>
	<rect x="538.1" y="50" fill="#1D3649" width="5" height="5"/>
	<rect x="601" y="51.1" fill="#1D3649" width="5" height="5"/>
	<rect x="467.3" y="21.8" fill="#1D3649" width="5" height="5"/>
	<rect x="124.8" y="62.5" fill="#1D3649" width="5" height="5"/>
	<rect x="59" y="119.1" fill="#1D3649" width="5" height="5"/>
	<rect x="7.5" y="108.4" fill="#1D3649" width="5" height="5"/>
	<rect x="92.3" y="94.5" fill="#1D3649" width="5" height="5"/>
	<rect x="28.8" y="138.1" fill="#1D3649" width="5" height="5"/>
	<rect x="101.3" y="42.5" fill="#1D3649" width="5" height="5"/>
	<rect x="93.6" y="140.8" fill="#1D3649" width="5" height="5"/>
	<rect x="31.3" y="87.5" fill="#1D3649" width="5" height="5"/>
</g>
<g>
	<rect x="1407.1" y="7.3" fill="#1D3649" width="10" height="10"/>
	<rect x="1348.6" y="59.3" fill="#1D3649" width="10" height="10"/>
	<rect x="1366.9" y="73.1" fill="#1D3649" width="10" height="10"/>
	<rect x="1361.9" y="7.3" fill="#1D3649" width="10" height="10"/>
	<rect x="1300.1" y="28.1" fill="#1D3649" width="10" height="10"/>
	<rect x="1386.2" y="49.4" fill="#1D3649" width="14.9" height="14.9"/>
	<rect x="1066.2" y="12.4" fill="#1D3649" width="14.9" height="14.9"/>
	<rect x="948.6" y="35.6" fill="#1D3649" width="14.9" height="14.9"/>
	<rect x="1252.4" y="91.6" fill="#1D3649" width="14.9" height="14.9"/>
	<rect x="867.1" y="0" fill="#1D3649" width="14.9" height="14.9"/>
	<rect x="1430.9" y="65.6" fill="#1D3649" width="10" height="10"/>
	<rect x="1266.1" y="60.6" fill="#1D3649" width="10" height="10"/>
	<rect x="1361.9" y="31.9" fill="#1D3649" width="10" height="10"/>
	<rect x="1289.4" y="7.3" fill="#1D3649" width="10" height="10"/>
	<rect x="1259.9" y="17.3" fill="#1D3649" width="10" height="10"/>
	<rect x="1327.1" y="14.8" fill="#1D3649" width="10" height="10"/>
	<rect x="1213.4" y="4.8" fill="#1D3649" width="10" height="10"/>
	<rect x="1204.9" y="56.8" fill="#1D3649" width="10" height="10"/>
	<rect x="1184.4" y="83.1" fill="#1D3649" width="10" height="10"/>
	<rect x="1015.4" y="4.8" fill="#1D3649" width="10" height="10"/>
	<rect x="1101.8" y="68.1" fill="#1D3649" width="10" height="10"/>
	<rect x="1134.6" y="81.8" fill="#1D3649" width="10" height="10"/>
	<rect x="938.6" y="4.8" fill="#1D3649" width="10" height="10"/>
	<rect x="895.3" y="4.8" fill="#1D3649" width="10" height="10"/>
	<rect x="1064.9" y="51.6" fill="#1D3649" width="10" height="10"/>
	<rect x="1049.1" y="33.1" fill="#1D3649" width="10" height="10"/>
	<rect x="1116.8" y="28.1" fill="#1D3649" width="10" height="10"/>
	<rect x="1111.8" y="4.8" fill="#1D3649" width="10" height="10"/>
	<rect x="1184.4" y="28.1" fill="#1D3649" width="10" height="10"/>
	<rect x="1301.1" y="80.6" fill="#1D3649" width="10" height="10"/>
	<rect x="994.4" y="24.8" fill="#1D3649" width="10" height="10"/>
	<rect x="946.9" y="70.6" fill="#1D3649" width="10" height="10"/>
	<rect x="979.6" y="81.8" fill="#1D3649" width="10" height="10"/>
	<rect x="862.4" y="58.1" fill="#1D3649" width="10" height="10"/>
	<rect x="867.4" y="29.4" fill="#1D3649" width="10" height="10"/>
	<rect x="1022.1" y="60.6" fill="#1D3649" width="10" height="10"/>
	<rect x="908.9" y="26.9" fill="#1D3649" width="10" height="10"/>
	<rect x="819.1" y="18.1" fill="#1D3649" width="10" height="10"/>
	<rect x="1166.6" y="12.3" fill="#1D3649" width="10" height="10"/>
	<rect x="1223.4" y="33.1" fill="#1D3649" width="10" height="10"/>
	<rect x="1423.4" y="35.6" fill="#1D3649" width="10" height="10"/>
	<rect x="1109.3" y="54.1" fill="#1D3649" width="5" height="5"/>
	<rect x="1029.6" y="34.4" fill="#1D3649" width="5" height="5"/>
	<rect x="1171.6" y="45.6" fill="#1D3649" width="5" height="5"/>
	<rect x="1015.4" y="51.6" fill="#1D3649" width="5" height="5"/>
	<rect x="1027.1" y="93.1" fill="#1D3649" width="5" height="5"/>
	<rect x="927.9" y="48.1" fill="#1D3649" width="5" height="5"/>
	<rect x="1139.6" y="22.3" fill="#1D3649" width="5" height="5"/>
	<rect x="1273.6" y="45.6" fill="#1D3649" width="5" height="5"/>
	<rect x="1218.4" y="85.6" fill="#1D3649" width="5" height="5"/>
	<rect x="1245.4" y="58.1" fill="#1D3649" width="5" height="5"/>
	<rect x="1276.1" y="100" fill="#1D3649" width="5" height="5"/>
	<rect x="1313.6" y="117.2" fill="#1D3649" width="5" height="5"/>
	<rect x="1276.1" y="131.1" fill="#1D3649" width="5" height="5"/>
	<rect x="1072.4" y="83.1" fill="#1D3649" width="5" height="5"/>
	<rect x="1147.5" y="107" fill="#1D3649" width="5" height="5"/>
	<rect x="1161.6" y="69.2" fill="#1D3649" width="5" height="5"/>
	<rect x="1181.9" y="109.5" fill="#1D3649" width="5" height="5"/>
	<rect x="1139.6" y="52.6" fill="#1D3649" width="5" height="5"/>
	<rect x="1088.6" y="31.9" fill="#1D3649" width="5" height="5"/>
	<rect x="991.9" y="63.1" fill="#1D3649" width="5" height="5"/>
	<rect x="846.4" y="22.3" fill="#1D3649" width="5" height="5"/>
	<rect x="897.8" y="48.1" fill="#1D3649" width="5" height="5"/>
	<rect x="834.9" y="49.1" fill="#1D3649" width="5" height="5"/>
	<rect x="968.6" y="19.8" fill="#1D3649" width="5" height="5"/>
	<rect x="1311.1" y="60.6" fill="#1D3649" width="5" height="5"/>
	<rect x="1376.9" y="117.2" fill="#1D3649" width="5" height="5"/>
	<rect x="1428.4" y="106.5" fill="#1D3649" width="5" height="5"/>
	<rect x="1343.6" y="92.6" fill="#1D3649" width="5" height="5"/>
	<rect x="1407.1" y="136.1" fill="#1D3649" width="5" height="5"/>
	<rect x="1334.6" y="40.6" fill="#1D3649" width="5" height="5"/>
	<rect x="1342.3" y="138.9" fill="#1D3649" width="5" height="5"/>
	<rect x="1404.6" y="85.6" fill="#1D3649" width="5" height="5"/>
</g>
</svg>
